IKResults C01
version=1
nRows=26
nColumns=24
inDegrees=yes

Units are S.I. units (second, meters, Newtons, ...)
If the header above contains a line with 'inDegrees', this indicates whether rotational values are in degrees (yes) or radians (no).

endheader
time	pelvis_tilt	pelvis_list	pelvis_rotation	pelvis_tx	pelvis_ty	pelvis_tz	hip_flexion_r	hip_adduction_r	hip_rotation_r	knee_angle_r	ankle_angle_r	subtalar_angle_r	mtp_angle_r	hip_flexion_l	hip_adduction_l	hip_rotation_l	knee_angle_l	ankle_angle_l	subtalar_angle_l	mtp_angle_l	lumbar_extension	lumbar_bending	lumbar_rotation
      9.20000000	      3.61841873	      1.42672778	    -82.63022022	     -0.19335237	      0.96102214	     -1.62905569	     32.63390793	     -6.28758329	     -6.30434619	    -63.15525997	      1.57696836	    -23.53436855	      0.00000000	      6.84264630	      8.35398260	      6.94620412	    -16.19226094	     13.90419626	     -0.11533789	      0.00000000	    -13.43964237	     -5.11995869	    -13.12994918
      9.21000000	      3.56733828	      1.22673183	    -82.10526912	     -0.19226514	      0.96079390	     -1.61551557	     33.37738489	     -6.59232193	     -6.66790150	    -60.84685007	      1.88399931	    -23.19239497	      0.00000000	      5.69971000	      8.28519569	      7.71653879	    -16.33537275	     14.86888363	     -0.36328494	      0.00000000	    -13.66060661	     -4.90039892	    -13.45787642
      9.22000000	      3.52420543	      1.12256174	    -81.45336976	     -0.19105504	      0.96012977	     -1.60227974	     34.09932590	     -6.99035891	     -7.10951680	    -58.34214716	      1.95247912	    -23.02312009	      0.00000000	      4.68898878	      8.23670596	      8.68637620	    -16.45462751	     15.21064072	     -0.42198167	      0.00000000	    -13.84580726	     -4.57483770	    -13.62618541
      9.23000000	      3.53576147	      0.92060593	    -80.89329263	     -0.19014521	      0.95948902	     -1.58849055	     34.56493683	     -7.36842481	     -7.47600939	    -55.58714481	      2.14086364	    -22.45119809	      0.00000000	      3.49055818	      8.16657754	      9.53249431	    -16.44224309	     16.46459344	     -0.69501624	      0.00000000	    -13.97830237	     -4.54929865	    -14.27468267
      9.24000000	      3.64965957	      0.74802489	    -80.58671636	     -0.18959972	      0.95855519	     -1.57435936	     34.99316905	     -7.71336486	     -7.67341332	    -52.66916880	      2.13595573	    -22.28368736	      0.00000000	      2.20830276	      8.16385633	     10.09490811	    -16.31435569	     16.74619635	     -0.72055516	      0.00000000	    -14.20753628	     -4.52892125	    -14.31992836
      9.25000000	      3.75240269	      0.62140290	    -80.24697344	     -0.18909353	      0.95731920	     -1.56025474	     35.36577456	     -8.05220946	     -7.84407978	    -49.58607481	      2.15420442	    -21.69902285	      0.00000000	      1.00263360	      8.13318022	     10.61569704	    -16.21976951	     17.87648207	     -0.94005890	      0.00000000	    -14.34004862	     -4.53265711	    -14.55669642
      9.26000000	      3.87726072	      0.58497677	    -79.93325134	     -0.18865873	      0.95574497	     -1.54607506	     35.72216795	     -8.40480018	     -7.95966680	    -46.34496251	      2.49678291	    -20.38156520	      0.00000000	     -0.11968988	      8.11492098	     11.07419012	    -16.11343977	     18.96634452	     -0.83594336	      0.00000000	    -14.14829768	     -4.60759926	    -14.83884784
      9.27000000	      4.00753243	      0.55158115	    -79.66962358	     -0.18840021	      0.95404472	     -1.53163302	     35.94907389	     -8.70030664	     -8.00427186	    -42.92536075	      2.53325064	    -19.94633374	      0.00000000	     -1.27405121	      8.04786088	     11.32580552	    -15.96116158	     19.25719177	     -0.75825082	      0.00000000	    -14.38901796	     -4.73226339	    -14.86482871
      9.28000000	      4.14546617	      0.60732051	    -79.33395745	     -0.18791853	      0.95200583	     -1.51735867	     36.16015440	     -9.04770732	     -8.04257562	    -39.41896597	      3.00719467	    -17.69938355	      0.00000000	     -2.27665827	      8.01457706	     11.59981402	    -15.88759213	     20.69606901	     -0.36931091	      0.00000000	    -14.28714331	     -4.85534672	    -15.25856906
      9.29000000	      4.29055931	      0.67886667	    -79.13538100	     -0.18776043	      0.94976024	     -1.50265928	     36.28427073	     -9.25487282	     -7.83774880	    -35.82846360	      3.05338469	    -17.60491920	      0.00000000	     -3.31197877	      7.94113282	     11.54692014	    -15.75072057	     20.73424221	     -0.32963326	      0.00000000	    -14.10270739	     -4.94047779	    -15.25633650
      9.30000000	      4.43352619	      0.76477759	    -79.07243162	     -0.18791395	      0.94739656	     -1.48764516	     36.37473083	     -9.34158326	     -7.46565805	    -32.29985183	      4.05658383	    -14.85609547	      0.00000000	     -4.36986497	      7.85203142	     11.36425030	    -15.58171086	     22.49831063	      0.76720999	      0.00000000	    -13.92028033	     -5.04045304	    -15.11976559
      9.31000000	      4.52573879	      0.89991736	    -78.92931189	     -0.18796421	      0.94478881	     -1.47296674	     36.44309230	     -9.39342747	     -7.03690144	    -28.80888322	      4.11356721	    -14.78778623	      0.00000000	     -5.24513149	      7.73237580	     11.25698215	    -15.58908183	     22.50729789	      0.80361611	      0.00000000	    -13.77667158	     -5.16125634	    -15.13539304
      9.32000000	      4.56726243	      1.06123139	    -78.78813171	     -0.18809292	      0.94210235	     -1.45818652	     36.47363050	     -9.38660473	     -6.46722278	    -25.47256888	      4.17656898	    -14.68880607	      0.00000000	     -6.05778492	      7.56857523	     11.11216206	    -15.64692656	     22.58718405	      0.83878385	      0.00000000	    -13.60997182	     -5.22967679	    -15.15194408
      9.33000000	      4.54698948	      1.27494974	    -78.61905707	     -0.18839446	      0.93928874	     -1.44324246	     36.47027724	     -9.27749118	     -6.04156565	    -22.26196761	      5.68645055	    -12.82635667	      0.00000000	     -6.75642339	      7.34086641	     11.08353485	    -15.82745381	     24.59618552	      1.70831227	      0.00000000	    -13.28628232	     -5.27489455	    -15.33504346
      9.34000000	      4.48718914	      1.52806771	    -78.44856689	     -0.18874105	      0.93649123	     -1.42837759	     36.47155107	     -9.12122607	     -5.40886641	    -19.26877965	      5.74644146	    -12.73912301	      0.00000000	     -7.31034962	      7.08882814	     10.96481484	    -16.14499783	     24.58601494	      1.75620725	      0.00000000	    -13.08690527	     -5.20833949	    -15.33556745
      9.35000000	      4.39175256	      1.89969645	    -78.24381368	     -0.18904131	      0.93367332	     -1.41353492	     36.53285150	     -8.95248648	     -4.59424173	    -16.58554294	      7.54331215	    -11.20217241	      0.00000000	     -7.63096697	      6.82216015	     10.82994910	    -16.62945734	     25.41304225	      2.73591066	      0.00000000	    -12.53358990	     -5.16264166	    -15.38940734
      9.36000000	      4.27382091	      2.28110262	    -77.97184103	     -0.18934071	      0.93096179	     -1.39856380	     36.52349548	     -8.76342439	     -3.52743353	    -14.14926757	      7.56250072	    -11.03346375	      0.00000000	     -7.85186655	      6.52419389	     10.80074662	    -17.27313105	     25.46098558	      2.78399878	      0.00000000	    -12.20785012	     -4.87836519	    -15.42648674
      9.37000000	      4.09957520	      2.64495124	    -77.61339334	     -0.18965150	      0.92851715	     -1.38352970	     36.51407247	     -8.54355792	     -2.51840200	    -12.30521303	      8.29691870	    -10.76863531	      0.00000000	     -8.00096397	      6.13870870	     10.85891461	    -18.04644046	     25.96869935	      3.19746326	      0.00000000	    -11.76034425	     -4.75891405	    -15.79834353
      9.38000000	      3.87930622	      3.01629826	    -77.23125915	     -0.19011546	      0.92618723	     -1.36827182	     36.57297440	     -8.29726981	     -1.86586984	    -11.23512591	      8.46644457	    -10.82855644	      0.00000000	     -8.08192768	      5.67403258	     10.95156554	    -18.91772210	     26.00007260	      3.31666720	      0.00000000	    -11.36530168	     -4.40566412	    -15.85967151
      9.39000000	      3.69712567	      3.34017101	    -76.89396239	     -0.19080252	      0.92393745	     -1.35279045	     36.57405471	     -8.05786512	     -1.59525470	    -10.78567687	      9.14944341	    -11.35977534	      0.00000000	     -8.16379076	      5.19032813	     10.91277217	    -19.84725139	     26.08851108	      4.08660936	      0.00000000	    -10.96629757	     -4.30680692	    -16.30051313
      9.40000000	      3.53474074	      3.58444716	    -76.54784701	     -0.19141204	      0.92180734	     -1.33700470	     36.54557954	     -7.85305060	     -1.96480877	    -11.14449999	      9.15947901	    -11.36154106	      0.00000000	     -8.34165325	      4.75640421	     11.17599282	    -20.79249942	     26.08409697	      4.13249933	      0.00000000	    -10.81728527	     -4.17521155	    -16.32340668
      9.41000000	      3.32287622	      3.68241522	    -76.25767000	     -0.19210626	      0.91989305	     -1.32076589	     36.33377843	     -7.53307077	     -2.51389694	    -12.09541732	      9.54796706	    -10.56086368	      0.00000000	     -8.62996991	      4.18095544	     11.26242370	    -21.80743828	     25.82207744	      5.22014028	      0.00000000	    -10.45330973	     -3.82598958	    -16.99098829
      9.42000000	      3.01961732	      3.75024285	    -76.06539938	     -0.19302066	      0.91826956	     -1.30437129	     36.08470389	     -7.07541572	     -3.08829994	    -13.42928761	      9.50677709	    -10.21428079	      0.00000000	     -8.87805014	      3.56510446	     11.36219582	    -22.86903745	     25.76577510	      5.35392427	      0.00000000	    -10.29677441	     -3.35667875	    -16.95968628
      9.43000000	      2.64796936	      3.81709662	    -75.94147351	     -0.19409339	      0.91683518	     -1.28775881	     35.81516852	     -6.48251567	     -3.93991558	    -14.30750334	      9.31704503	     -9.84235209	      0.00000000	     -9.01944007	      2.87202405	     11.28166973	    -24.07025912	     25.47453782	      5.59265584	      0.00000000	    -10.02543520	     -2.86256847	    -16.96086227
      9.44000000	      2.21062566	      3.94157212	    -75.91807445	     -0.19536525	      0.91582447	     -1.27119138	     35.55899603	     -5.79141165	     -4.70357860	    -13.96514380	      7.13635448	     -9.04404714	      0.00000000	     -8.93292688	      2.14734816	     11.05487230	    -25.44446324	     24.31967286	      6.38459155	      0.00000000	     -9.58872798	     -1.87335376	    -11.23659610
      9.45000000	      1.77900995	      4.19831097	    -75.95536379	     -0.19657752	      0.91489419	     -1.25465209	     35.16276119	     -5.09034765	     -4.69969902	    -13.55979909	      4.46576021	     -9.14273075	      0.00000000	     -8.53077246	      1.47353964	     10.52764547	    -27.05889641	     23.16896467	      7.05545817	      0.00000000	     -9.07701043	     -1.40976154	    -10.91853038
